<svg xmlns="http://www.w3.org/2000/svg" viewBox="0 0 900 560" role="img" aria-labelledby="title desc">
  <title id="title">Carpentry demo thumbnail</title>
  <desc id="desc">A warm carpentry portfolio website preview with fitted furniture shapes.</desc>
  <defs>
    <linearGradient id="wood" x1="0" x2="1" y1="0" y2="1">
      <stop stop-color="#d69a5f"/>
      <stop offset="1" stop-color="#8d5628"/>
    </linearGradient>
  </defs>
  <rect width="900" height="560" fill="#fbf4e8"/>
  <rect x="58" y="58" width="784" height="444" rx="24" fill="#ffffff" stroke="#eadac7" stroke-width="4"/>
  <rect x="104" y="102" width="310" height="30" rx="15" fill="#2c2a27"/>
  <rect x="104" y="150" width="370" height="14" rx="7" fill="#8b8176"/>
  <rect x="104" y="188" width="150" height="48" rx="8" fill="#b8753b"/>
  <rect x="504" y="100" width="260" height="270" rx="18" fill="url(#wood)"/>
  <rect x="545" y="135" width="70" height="200" rx="8" fill="#f6e8d7" opacity=".92"/>
  <rect x="637" y="135" width="86" height="200" rx="8" fill="#f6e8d7" opacity=".82"/>
  <path d="M545 190h178M545 260h178" stroke="#9c6432" stroke-width="9" stroke-linecap="round" opacity=".75"/>
  <rect x="104" y="320" width="116" height="100" rx="14" fill="#fbf4e8"/>
  <rect x="248" y="320" width="116" height="100" rx="14" fill="#fbf4e8"/>
  <rect x="392" y="320" width="116" height="100" rx="14" fill="#fbf4e8"/>
</svg>
