<svg xmlns="http://www.w3.org/2000/svg" viewBox="0 0 900 560" role="img" aria-labelledby="title desc">
  <title id="title">Electrician demo thumbnail</title>
  <desc id="desc">A clean electrician website preview with navy panels and yellow highlights.</desc>
  <defs>
    <linearGradient id="g" x1="0" x2="1" y1="0" y2="1">
      <stop stop-color="#101826"/>
      <stop offset="1" stop-color="#1f3354"/>
    </linearGradient>
  </defs>
  <rect width="900" height="560" fill="#f4f7fb"/>
  <rect x="58" y="58" width="784" height="444" rx="24" fill="#ffffff" stroke="#dce5f2" stroke-width="4"/>
  <rect x="58" y="58" width="784" height="116" rx="24" fill="url(#g)"/>
  <rect x="104" y="104" width="280" height="20" rx="10" fill="#ffffff"/>
  <rect x="104" y="137" width="210" height="12" rx="6" fill="#ccd8eb"/>
  <rect x="614" y="103" width="148" height="44" rx="8" fill="#ffd43b"/>
  <rect x="104" y="226" width="210" height="176" rx="16" fill="#eef3fa"/>
  <path d="M170 356l48-112h58l-38 76h50l-84 110 22-74z" fill="#ffd43b"/>
  <rect x="362" y="226" width="178" height="176" rx="16" fill="#101826" opacity=".93"/>
  <path d="M397 286h108M397 324h92M397 362h64" stroke="#ffffff" stroke-width="14" stroke-linecap="round"/>
  <rect x="588" y="226" width="210" height="176" rx="16" fill="#eef3fa"/>
  <circle cx="665" cy="304" r="34" fill="#ffd43b"/>
  <path d="M717 269v100M742 293v52M634 366h122" stroke="#101826" stroke-width="12" stroke-linecap="round"/>
</svg>
