<svg xmlns="http://www.w3.org/2000/svg" viewBox="0 0 1200 760" role="img" aria-labelledby="title desc">
  <title id="title">Clean local trade website preview</title>
  <desc id="desc">A stylised website mockup with a quote form, service cards and trade imagery.</desc>
  <defs>
    <linearGradient id="bg" x1="0" x2="1" y1="0" y2="1">
      <stop offset="0" stop-color="#f4f8ff"/>
      <stop offset="1" stop-color="#e8f1ff"/>
    </linearGradient>
    <linearGradient id="hero" x1="0" x2="1">
      <stop offset="0" stop-color="#0f62fe"/>
      <stop offset="1" stop-color="#101826"/>
    </linearGradient>
  </defs>
  <rect width="1200" height="760" fill="url(#bg)"/>
  <rect x="70" y="70" width="1060" height="620" rx="28" fill="#ffffff" stroke="#d8e4f4" stroke-width="4"/>
  <rect x="70" y="70" width="1060" height="72" rx="28" fill="#101826"/>
  <circle cx="113" cy="106" r="10" fill="#ff6868"/>
  <circle cx="145" cy="106" r="10" fill="#ffd43b"/>
  <circle cx="177" cy="106" r="10" fill="#44d17f"/>
  <rect x="110" y="185" width="500" height="270" rx="22" fill="url(#hero)"/>
  <rect x="155" y="235" width="320" height="24" rx="12" fill="#ffffff" opacity=".95"/>
  <rect x="155" y="279" width="390" height="16" rx="8" fill="#d8e6ff" opacity=".9"/>
  <rect x="155" y="312" width="340" height="16" rx="8" fill="#d8e6ff" opacity=".72"/>
  <rect x="155" y="366" width="145" height="48" rx="8" fill="#ffd43b"/>
  <rect x="320" y="366" width="145" height="48" rx="8" fill="#ffffff" opacity=".95"/>
  <rect x="650" y="185" width="395" height="270" rx="22" fill="#eef5ff"/>
  <rect x="700" y="245" width="180" height="150" rx="14" fill="#0f62fe" opacity=".14"/>
  <path d="M742 355h185l-42-82-38 51-32-37z" fill="#0f62fe" opacity=".45"/>
  <circle cx="792" cy="285" r="25" fill="#ffd43b"/>
  <rect x="110" y="500" width="280" height="112" rx="16" fill="#f7fbff" stroke="#dce5f2"/>
  <rect x="460" y="500" width="280" height="112" rx="16" fill="#f7fbff" stroke="#dce5f2"/>
  <rect x="810" y="500" width="235" height="112" rx="16" fill="#f7fbff" stroke="#dce5f2"/>
  <rect x="135" y="530" width="165" height="18" rx="9" fill="#172033"/>
  <rect x="485" y="530" width="185" height="18" rx="9" fill="#172033"/>
  <rect x="835" y="530" width="145" height="18" rx="9" fill="#172033"/>
  <rect x="135" y="565" width="210" height="12" rx="6" fill="#7d8999"/>
  <rect x="485" y="565" width="190" height="12" rx="6" fill="#7d8999"/>
  <rect x="835" y="565" width="165" height="12" rx="6" fill="#7d8999"/>
</svg>
