<svg xmlns="http://www.w3.org/2000/svg" viewBox="0 0 900 560" role="img" aria-labelledby="title desc">
  <title id="title">Plumbing demo thumbnail</title>
  <desc id="desc">A clean plumbing website preview with blue accents and pipework imagery.</desc>
  <defs>
    <linearGradient id="g" x1="0" x2="1" y1="0" y2="1">
      <stop stop-color="#0f62fe"/>
      <stop offset="1" stop-color="#56c7ff"/>
    </linearGradient>
  </defs>
  <rect width="900" height="560" fill="#f3f7fb"/>
  <rect x="58" y="58" width="784" height="444" rx="24" fill="#ffffff" stroke="#dce5f2" stroke-width="4"/>
  <rect x="104" y="105" width="286" height="28" rx="14" fill="#172033"/>
  <rect x="104" y="150" width="350" height="14" rx="7" fill="#7d8999"/>
  <rect x="104" y="188" width="148" height="48" rx="8" fill="#0f62fe"/>
  <rect x="282" y="188" width="148" height="48" rx="8" fill="#eef5ff"/>
  <rect x="520" y="98" width="245" height="190" rx="18" fill="url(#g)"/>
  <path d="M570 175h76a42 42 0 0142 42v27" fill="none" stroke="#ffffff" stroke-width="24" stroke-linecap="round"/>
  <circle cx="703" cy="175" r="37" fill="#ffffff" opacity=".3"/>
  <path d="M580 250h150" stroke="#ffffff" stroke-width="22" stroke-linecap="round"/>
  <rect x="104" y="332" width="194" height="104" rx="16" fill="#f3f7fb"/>
  <rect x="353" y="332" width="194" height="104" rx="16" fill="#f3f7fb"/>
  <rect x="602" y="332" width="163" height="104" rx="16" fill="#f3f7fb"/>
</svg>
